<svg width="61" height="17" viewBox="0 0 61 17" fill="none" xmlns="http://www.w3.org/2000/svg">
<path d="M4.992 16.458C3.61956 16.458 2.49244 16.1594 1.61067 15.562C0.736 14.9576 0.199111 14.1149 0 13.034L1.94133 12.7247C2.09778 13.3505 2.45689 13.8483 3.01867 14.218C3.58044 14.5807 4.27733 14.762 5.10933 14.762C5.89867 14.762 6.51733 14.5985 6.96533 14.2714C7.41333 13.9443 7.63733 13.4998 7.63733 12.938C7.63733 12.6109 7.56267 12.3478 7.41333 12.1487C7.264 11.9425 6.95467 11.7505 6.48533 11.5727C6.02311 11.3949 5.32267 11.1816 4.384 10.9327C3.36711 10.6625 2.56711 10.3816 1.984 10.0901C1.40089 9.79853 0.984889 9.46075 0.736 9.07675C0.487111 8.69275 0.362667 8.22697 0.362667 7.67942C0.362667 7.00386 0.547556 6.41364 0.917333 5.90875C1.28711 5.39675 1.80267 5.00208 2.464 4.72475C3.13244 4.44742 3.90756 4.30875 4.78933 4.30875C5.664 4.30875 6.44622 4.44742 7.136 4.72475C7.82578 5.00208 8.38044 5.39675 8.8 5.90875C9.22667 6.41364 9.47911 7.00386 9.55733 7.67942L7.616 8.03142C7.52356 7.41275 7.22489 6.92564 6.72 6.57008C6.22222 6.21453 5.57867 6.02608 4.78933 6.00475C4.04267 5.97631 3.43467 6.10786 2.96533 6.39942C2.50311 6.69097 2.272 7.08564 2.272 7.58342C2.272 7.86075 2.35733 8.09897 2.528 8.29808C2.70578 8.49719 3.02933 8.68564 3.49867 8.86342C3.97511 9.04119 4.66489 9.24386 5.568 9.47142C6.58489 9.72742 7.38489 10.0083 7.968 10.3141C8.55822 10.6127 8.97778 10.9683 9.22667 11.3807C9.47556 11.786 9.6 12.2874 9.6 12.8847C9.6 13.994 9.19111 14.8687 8.37333 15.5087C7.55556 16.1416 6.42844 16.458 4.992 16.458Z" fill="#242424"/>
<path d="M12.8307 16.1488L12.8414 0.788757H14.7614V10.1754L19.5934 4.62876H22.0574L16.9694 10.3888L22.6547 16.1488H19.9987L14.7614 10.6021V16.1488H12.8307Z" fill="#242424"/>
<path d="M24.6529 16.3087L23.3729 15.0287L25.2183 13.1834L25.7729 12.8527L32.1089 6.53808L32.3543 6.06875L33.9649 4.46875L35.2449 5.74875L33.4636 7.50875L32.9943 7.76475L26.7863 13.9727L26.4023 14.5594L24.6529 16.3087ZM29.3036 16.4687C28.1587 16.4687 27.1703 16.2091 26.3383 15.69C25.5134 15.1709 24.8769 14.4527 24.4289 13.5354C23.9809 12.618 23.7569 11.5656 23.7569 10.3781C23.7569 9.16919 23.9845 8.10964 24.4396 7.19942C24.8947 6.28919 25.5383 5.58164 26.3703 5.07675C27.2023 4.56475 28.1801 4.30875 29.3036 4.30875C30.4556 4.30875 31.4476 4.56831 32.2796 5.08742C33.1116 5.59942 33.7481 6.31408 34.1889 7.23142C34.6369 8.14164 34.8609 9.19053 34.8609 10.3781C34.8609 11.5798 34.6369 12.6394 34.1889 13.5567C33.7409 14.4669 33.1009 15.1816 32.2689 15.7007C31.4369 16.2127 30.4485 16.4687 29.3036 16.4687ZM29.3036 14.666C30.4983 14.666 31.3872 14.2678 31.9703 13.4714C32.5534 12.6749 32.8449 11.6438 32.8449 10.3781C32.8449 9.07675 32.5498 8.04208 31.9596 7.27408C31.3694 6.49897 30.4841 6.11142 29.3036 6.11142C28.5001 6.11142 27.8387 6.29275 27.3196 6.65542C26.8005 7.01808 26.4129 7.51942 26.1569 8.15942C25.9009 8.79942 25.7729 9.53897 25.7729 10.3781C25.7729 11.6723 26.0716 12.7105 26.6689 13.4927C27.2663 14.2749 28.1445 14.666 29.3036 14.666Z" fill="#242424"/>
<path d="M38.3117 16.1488V0.46875H40.2103V16.1488H38.3117Z" fill="#242424"/>
<path d="M48.8224 16.4688C47.7486 16.4688 46.8277 16.2021 46.0597 15.6688C45.2917 15.1284 44.6979 14.3995 44.2784 13.4821C43.8659 12.5648 43.6597 11.5301 43.6597 10.3781C43.6597 9.22609 43.8659 8.19143 44.2784 7.27409C44.6979 6.35676 45.2917 5.63498 46.0597 5.10876C46.8277 4.57543 47.7451 4.30876 48.8117 4.30876C49.8997 4.30876 50.8135 4.57187 51.5531 5.09809C52.2926 5.62432 52.8508 6.34609 53.2277 7.26343C53.6117 8.18076 53.8037 9.21898 53.8037 10.3781C53.8037 11.523 53.6117 12.5577 53.2277 13.4821C52.8508 14.3995 52.2926 15.1284 51.5531 15.6688C50.8135 16.2021 49.9033 16.4688 48.8224 16.4688ZM49.0571 14.7301C49.8322 14.7301 50.4686 14.5452 50.9664 14.1755C51.4642 13.7986 51.8304 13.283 52.0651 12.6288C52.3068 11.9675 52.4277 11.2172 52.4277 10.3781C52.4277 9.52476 52.3068 8.77454 52.0651 8.12743C51.8304 7.4732 51.4677 6.96476 50.9771 6.60209C50.4864 6.23232 49.8642 6.04743 49.1104 6.04743C48.3282 6.04743 47.6811 6.23943 47.1691 6.62343C46.6642 7.00743 46.2873 7.52654 46.0384 8.18076C45.7966 8.83498 45.6757 9.56743 45.6757 10.3781C45.6757 11.1959 45.8002 11.9355 46.0491 12.5968C46.2979 13.251 46.6713 13.7701 47.1691 14.1541C47.6739 14.5381 48.3033 14.7301 49.0571 14.7301ZM52.4277 16.1488V7.66876H52.2144V0.788757H54.1237V16.1488H52.4277Z" fill="#242424"/>
<path d="M58.3424 16.1487V14.058H60.4331V16.1487H58.3424Z" fill="#242424"/>
</svg>
